inDegrees=yes
name=ik_S57_A10_T02
DataType=double
version=3
OpenSimVersion=4.3-2021-08-27-4bc7ad9
endheader
time	pelvis_tilt	pelvis_list	pelvis_rotation	pelvis_tx	pelvis_ty	pelvis_tz	hip_flexion_r	hip_adduction_r	hip_rotation_r	knee_angle_r	knee_angle_r_beta	ankle_angle_r	subtalar_angle_r	mtp_angle_r	hip_flexion_l	hip_adduction_l	hip_rotation_l	knee_angle_l	knee_angle_l_beta	ankle_angle_l	subtalar_angle_l	mtp_angle_l	lumbar_extension	lumbar_bending	lumbar_rotation	arm_flex_r	arm_add_r	arm_rot_r	elbow_flex_r	pro_sup_r	wrist_flex_r	wrist_dev_r	arm_flex_l	arm_add_l	arm_rot_l	elbow_flex_l	pro_sup_l	wrist_flex_l	wrist_dev_l
13.4799999999998	0.09835270212333386	0.7098811466806184	19.1135804061751	0	0.9399999999999999	0	44.9817678888821	-10.00000310803232	-10.0000320302333	55.00628456699621	0.9600407749830273	0	0	0	44.9817678888821	-10.00000310803232	-10.0000320302333	55.00628456699621	0.9600407749830273	0	0	0	0.4830627896988254	0.4703922878898794	0.06831627668031669	55.41515202725925	10.14131014637547	-4.611833653217446	55.38319303729541	86.09312601818219	0	0	56.59557953834003	-14.53176987989246	17.14722813289288	65.20059285637599	57.87409387569997	0	0
13.4999999999998	0.04108363767032274	0.6700076001903418	19.42307960905513	0	0.9399999999999999	0	44.98204057625734	-10.00000299910981	-10.00003119483186	55.00620324160075	0.9600393555871111	0	0	0	44.98204057625734	-10.00000299910981	-10.00003119483186	55.00620324160075	0.9600393555871111	0	0	0	0.4134313245240518	0.4439455763115906	0.2157363228340556	51.99322951936648	9.616564277876227	-5.516809927954974	56.85113711093008	84.44183988683541	0	0	53.10456440051301	-13.30825537770474	15.37632421683205	64.96840324697638	57.45036662131864	0	0
13.5199999999998	-0.1233798148245764	0.404688374697551	19.5261474246574	0	0.9399999999999999	0	44.98224986687049	-10.00000291481782	-10.00003054997697	55.0061417280893	0.9600382819738017	0	0	0	44.98224986687049	-10.00000291481782	-10.00003054997697	55.0061417280893	0.9600382819738017	0	0	0	0.173134058315163	0.2533586313709009	0.7244830456854248	45.26282332595972	8.655541445652648	-7.947634554738573	58.45726083961059	81.31005021071965	0	0	53.68412094520412	-12.94191051808527	16.23462354441692	63.72094696342287	56.90624766755535	0	0
13.5399999999998	-0.3521291442981061	0.1377151332369417	19.80422929942907	0	0.9399999999999999	0	44.98243546208419	-10.00000284294969	-10.00002999091841	55.00608639709122	0.9600373162657069	0	0	0	44.98243546208419	-10.00000284294969	-10.00002999091841	55.00608639709122	0.9600373162657069	0	0	0	-0.1312850605956616	0.07551023033045592	0.7061560868738653	45.94457957411691	8.697799658452409	-8.379363000003632	58.45717469306521	81.31101985204765	0	0	50.34931452392344	-12.06752804537648	14.73718154556908	62.74049559036963	57.17861734988399	0	0
13.5599999999998	-0.4734829048803089	0.1865095924753334	19.77713131347953	0	0.9399999999999999	0	44.98281419334769	-10.00000270283379	-10.00002887818549	55.00597219747797	0.960035323106451	0	0	0	44.98281419334769	-10.00000270283379	-10.00002887818549	55.00597219747797	0.960035323106451	0	0	0	-0.1981300619303446	0.05584161593426594	0.7454883801914519	42.1605822777132	8.5093577884046	-9.563911449795095	51.85769152477414	86.47092993005379	0	0	46.67103502022464	-11.33317939969435	12.56680036341563	63.63727629756723	59.63157485635105	0	0
13.5799999999998	-0.5899043128787919	0.1208580401053445	19.87191556512053	0	0.9399999999999999	0	44.98294953019907	-10.00000265201027	-10.0000284771536	55.0059320468797	0.9600346223463146	0	0	0	44.98294953019907	-10.00000265201027	-10.0000284771536	55.0059320468797	0.9600346223463146	0	0	0	-0.3309510828431027	0.03653786585519213	0.8041267971200524	42.46567425924092	8.659720960139396	-10.07154178137861	46.22685224369352	86.77058503906561	0	0	46.75292346774052	-10.83567042032015	12.93573583982277	58.40460845226423	60.26740954337585	0	0
13.5999999999998	-0.9377764241510218	-0.07777205536556298	20.42428892531069	0	0.9399999999999999	0	44.98342176069556	-10.00000248105181	-10.00002710517137	55.00579081666177	0.9600321574140085	0	0	0	44.98342176069556	-10.00000248105181	-10.00002710517137	55.00579081666177	0.9600321574140085	0	0	0	-0.6848355465697102	-0.1316522752139959	0.3266054135188385	43.25650495812772	9.029585115684776	-10.61104342498736	40.55037962636834	85.92768357115629	0	0	36.3607864196254	-7.626502690683258	6.892539347991802	53.94122571972427	67.86276265646288	0	0
